<svg width="26" height="26" viewBox="0 0 26 26" fill="none" xmlns="http://www.w3.org/2000/svg">
<g clip-path="url(#clip0_1519_34)">
<rect width="26" height="26" rx="5" fill="#A10000"/>
<path d="M3 12.4701C3 6.92378 7.48563 2.41174 12.9995 2.41174C18.5135 2.41174 22.9991 6.92378 22.9991 12.4701C22.9991 12.9337 22.6258 13.3083 22.1658 13.3083C21.7058 13.3083 21.3325 12.9337 21.3325 12.4701C21.3325 7.84831 17.5943 4.08814 12.9995 4.08814C8.40475 4.08814 4.66659 7.84831 4.66659 12.4701C4.66659 12.9337 4.29327 13.3083 3.83329 13.3083C3.37332 13.3083 3 12.9337 3 12.4701ZM14.5153 20.7138C13.5212 20.8974 12.4779 20.8974 11.4829 20.7138C11.0321 20.6267 10.5963 20.9309 10.513 21.3869C10.4297 21.8421 10.7288 22.2788 11.1821 22.3626C11.7779 22.4732 12.3896 22.5286 12.9995 22.5286C13.6095 22.5286 14.2203 22.4732 14.817 22.3626C15.2694 22.2788 15.5694 21.8421 15.4861 21.3869C15.4036 20.9318 14.9736 20.6267 14.5153 20.7138ZM11.0355 8.57838C10.4438 7.98326 9.16388 8.30513 8.17809 9.29672C7.19147 10.2891 6.87149 11.5758 7.46396 12.1709C8.0556 12.766 9.33554 12.4442 10.3213 11.4526C11.308 10.4601 11.6279 9.17351 11.0355 8.57838ZM18.5351 12.1717C19.1268 11.5766 18.8068 10.2891 17.821 9.29672C16.8344 8.30429 15.5553 7.98242 14.9636 8.57838C14.372 9.17434 14.692 10.461 15.6777 11.4526C16.6644 12.445 17.9435 12.7677 18.5351 12.1717ZM12.9995 13.3092C11.6188 13.3092 10.4997 14.4349 10.4997 15.8238V16.662C10.4997 18.0509 11.6188 19.1766 12.9995 19.1766C14.3803 19.1766 15.4994 18.0509 15.4994 16.662V15.8238C15.4994 14.4349 14.3803 13.3092 12.9995 13.3092ZM3.7508 15.2655C2.985 15.7735 2.77418 16.812 3.27582 17.5848C3.28832 17.6041 4.4216 19.3761 4.63326 21.7725C4.67076 22.2008 5.03074 22.5294 5.45905 22.5294H7.94727C8.44475 22.5294 8.83723 22.091 8.78057 21.594C8.40225 18.2537 6.13236 15.8372 6.05403 15.7316C5.50072 14.9847 4.51743 14.7568 3.7508 15.2655ZM22.2516 15.2655C21.485 14.7568 20.5025 14.9847 19.9492 15.7316C19.8709 15.8372 17.601 18.2529 17.2227 21.594C17.166 22.091 17.5585 22.5294 18.056 22.5294H20.5442C20.9717 22.5294 21.3317 22.2017 21.37 21.7725C21.5808 19.3769 22.7149 17.6041 22.7274 17.5848C23.2299 16.812 23.0174 15.7743 22.2516 15.2655Z" fill="black"/>
</g>
<defs>
<clipPath id="clip0_1519_34">
<rect width="26" height="26" fill="white"/>
</clipPath>
</defs>
</svg>
